<svg width="1400" height="1400" viewBox="0 0 1400 1400" fill="none" xmlns="http://www.w3.org/2000/svg">
<mask id="mask0_1020_187" style="mask-type:alpha" maskUnits="userSpaceOnUse" x="0" y="0" width="1400" height="1400">
<circle cx="700" cy="700" r="700" fill="#D9D9D9"/>
</mask>
<g mask="url(#mask0_1020_187)">
<rect width="1400" height="1400" fill="#1C1931"/>
<path d="M1400 1200C1242.41 1200 1086.37 1168.96 940.78 1108.66C795.189 1048.35 662.902 959.959 551.472 848.528C440.042 737.098 351.65 604.811 291.345 459.22C231.039 313.63 200 157.586 200 0L1400 0.00012207V1200Z" fill="#DDE2EA"/>
<path d="M1400 1000C1268.68 1000 1138.64 974.134 1017.32 923.88C895.991 873.625 785.752 799.965 692.893 707.107C600.035 614.248 526.375 504.009 476.12 382.684C425.866 261.358 400 131.322 400 0L1400 0.000101725V1000Z" fill="#1C1931"/>
<path d="M1400 800C1294.94 800 1190.91 779.307 1093.85 739.104C996.793 698.9 908.601 639.972 834.315 565.685C760.028 491.399 701.1 403.207 660.896 306.147C620.693 209.086 600 105.057 600 0L1400 8.13802e-05V800Z" fill="#DDE2EA"/>
<path d="M1400 600C1321.21 600 1243.19 584.481 1170.39 554.328C1097.59 524.175 1031.45 479.979 975.736 424.264C920.021 368.549 875.825 302.405 845.672 229.61C815.519 156.815 800 78.7931 800 0L1400 6.10351e-05V600Z" fill="#1C1931"/>
<path d="M1400 400C1347.47 400 1295.46 389.654 1246.93 369.552C1198.4 349.45 1154.3 319.986 1117.16 282.843C1080.01 245.699 1050.55 201.604 1030.45 153.073C1010.35 104.543 1000 52.5287 1000 0L1400 4.06901e-05V400Z" fill="#DDE2EA"/>
<path d="M1400 200C1373.74 200 1347.73 194.827 1323.46 184.776C1299.2 174.725 1277.15 159.993 1258.58 141.421C1240.01 122.85 1225.28 100.802 1215.22 76.5367C1205.17 52.2716 1200 26.2644 1200 0L1400 2.03451e-05V200Z" fill="#1C1931"/>
</g>
<circle cx="700" cy="700" r="600" fill="white" fill-opacity="0.9"/>
<path d="M663.379 890.246C664.03 869.413 665.658 851.509 668.262 836.535C670.866 821.561 675.26 807.727 681.445 795.031C687.305 782.336 695.117 770.292 704.883 758.898C714.648 747.505 727.018 734.973 741.992 721.301C754.362 709.257 766.569 697.049 778.613 684.68C790.658 671.984 801.4 658.801 810.84 645.129C819.954 631.457 827.279 616.809 832.812 601.184C838.672 585.233 841.602 568.143 841.602 549.914C841.602 530.383 838.509 512.642 832.324 496.691C826.465 480.741 818.001 467.069 806.934 455.676C795.215 443.957 780.892 435.005 763.965 428.82C747.038 422.635 727.995 419.543 706.836 419.543C687.956 419.543 670.052 422.31 653.125 427.844C636.198 433.052 621.387 440.865 608.691 451.281C595.996 461.698 585.742 474.719 577.93 490.344C570.443 505.643 566.374 523.221 565.723 543.078H507.129C508.105 516.06 513.802 491.809 524.219 470.324C534.961 448.514 549.121 429.96 566.699 414.66C584.277 399.361 604.948 387.642 628.711 379.504C652.799 371.366 678.841 367.297 706.836 367.297C736.458 367.297 763.151 371.529 786.914 379.992C810.677 388.456 830.859 400.663 847.461 416.613C864.388 432.564 877.246 451.77 886.035 474.23C895.15 496.366 899.707 521.268 899.707 548.938C899.707 571.398 896.126 592.557 888.965 612.414C882.129 631.945 873.014 650.337 861.621 667.59C850.228 685.168 837.044 701.607 822.07 716.906C807.422 732.206 792.285 746.529 776.66 759.875C765.918 769.641 756.966 779.406 749.805 789.172C742.969 798.612 737.435 808.54 733.203 818.957C729.297 829.048 726.367 839.953 724.414 851.672C722.786 863.391 721.973 876.249 721.973 890.246H663.379ZM652.148 1052.36C652.148 1040.64 655.892 1030.87 663.379 1023.06C670.866 1015.25 681.12 1011.34 694.141 1011.34C706.836 1011.34 717.09 1015.25 724.902 1023.06C732.715 1030.87 736.621 1040.64 736.621 1052.36C736.621 1063.42 732.715 1072.86 724.902 1080.68C717.09 1088.16 706.836 1091.91 694.141 1091.91C681.12 1091.91 670.866 1088.16 663.379 1080.68C655.892 1072.86 652.148 1063.42 652.148 1052.36Z" fill="black"/>
</svg>
