<svg width="1400" height="1400" viewBox="0 0 1400 1400" fill="none" xmlns="http://www.w3.org/2000/svg">
<mask id="mask0_451_311" style="mask-type:alpha" maskUnits="userSpaceOnUse" x="0" y="0" width="1400" height="1400">
<circle cx="700" cy="700" r="700" fill="#D9D9D9"/>
</mask>
<g mask="url(#mask0_451_311)">
<rect width="1400" height="1400" fill="#1C1931"/>
<path d="M1400 1200C1242.41 1200 1086.37 1168.96 940.78 1108.66C795.189 1048.35 662.902 959.959 551.472 848.528C440.042 737.098 351.65 604.811 291.345 459.22C231.039 313.63 200 157.586 200 0L1400 0.00012207V1200Z" fill="#DDE2EA"/>
<path d="M1400 1000C1268.68 1000 1138.64 974.134 1017.32 923.88C895.991 873.625 785.752 799.965 692.893 707.107C600.035 614.248 526.375 504.009 476.12 382.684C425.866 261.358 400 131.322 400 0L1400 0.000101725V1000Z" fill="#1C1931"/>
<path d="M1400 800C1294.94 800 1190.91 779.307 1093.85 739.104C996.793 698.9 908.601 639.972 834.315 565.685C760.028 491.399 701.1 403.207 660.896 306.147C620.693 209.086 600 105.057 600 0L1400 8.13802e-05V800Z" fill="#DDE2EA"/>
<path d="M1400 600C1321.21 600 1243.19 584.481 1170.39 554.328C1097.59 524.175 1031.45 479.979 975.736 424.264C920.021 368.549 875.825 302.405 845.672 229.61C815.519 156.815 800 78.7931 800 0L1400 6.10351e-05V600Z" fill="#1C1931"/>
<path d="M1400 400C1347.47 400 1295.46 389.654 1246.93 369.552C1198.4 349.45 1154.3 319.986 1117.16 282.843C1080.01 245.699 1050.55 201.604 1030.45 153.073C1010.35 104.543 1000 52.5287 1000 0L1400 4.06901e-05V400Z" fill="#DDE2EA"/>
<path d="M1400 200C1373.74 200 1347.73 194.827 1323.46 184.776C1299.2 174.725 1277.15 159.993 1258.58 141.421C1240.01 122.85 1225.28 100.802 1215.22 76.5367C1205.17 52.2716 1200 26.2644 1200 0L1400 2.03451e-05V200Z" fill="#1C1931"/>
</g>
<circle cx="700" cy="700" r="600" fill="white" fill-opacity="0.9"/>
<path opacity="0.6" d="M699.896 580.678L418.75 708.49L699.896 874.688L981.094 708.49L699.896 580.678Z" fill="black"/>
<path opacity="0.45" d="M418.854 708.489L700 874.687V580.676V241.979L418.854 708.489Z" fill="black"/>
<path opacity="0.8" d="M700 241.979V580.676V874.687L981.146 708.489L700 241.979Z" fill="black"/>
<path opacity="0.45" d="M418.75 761.822L699.896 1158.02V927.916L418.75 761.822Z" fill="black"/>
<path opacity="0.8" d="M699.896 927.916V1158.02L981.25 761.822L699.896 927.916Z" fill="black"/>
</svg>
